<svg width="186" height="50" viewBox="0 0 186 50" fill="none" xmlns="http://www.w3.org/2000/svg">
<path d="M62.3242 16.7188C63.138 16.7188 63.8672 16.901 64.5117 17.2656C65.1628 17.6302 65.6673 18.1348 66.0254 18.7793C66.39 19.4173 66.5723 20.14 66.5723 20.9473C66.5723 21.7611 66.39 22.4935 66.0254 23.1445C65.6673 23.7891 65.166 24.2936 64.5215 24.6582C63.8835 25.0163 63.1608 25.1953 62.3535 25.1953H58.1445V30H56.9922V16.7188H62.3242ZM62.3242 24.1504C62.9102 24.1504 63.4375 24.0104 63.9062 23.7305C64.3815 23.4505 64.7526 23.0664 65.0195 22.5781C65.2865 22.0898 65.4199 21.5462 65.4199 20.9473C65.4199 20.3678 65.2832 19.8372 65.0098 19.3555C64.7363 18.8672 64.3587 18.4831 63.877 18.2031C63.4017 17.9167 62.8711 17.7734 62.2852 17.7734H58.1445V24.1504H62.3242ZM72.5293 30.2637C71.5918 30.2637 70.7324 30.0326 69.9512 29.5703C69.1764 29.1081 68.5645 28.4798 68.1152 27.6855C67.666 26.8913 67.4414 26.0156 67.4414 25.0586C67.4414 24.1016 67.666 23.2259 68.1152 22.4316C68.5645 21.6309 69.1764 20.9993 69.9512 20.5371C70.7259 20.0749 71.5853 19.8438 72.5293 19.8438C73.4733 19.8438 74.3327 20.0749 75.1074 20.5371C75.8887 20.9993 76.5039 21.6309 76.9531 22.4316C77.4023 23.2259 77.627 24.1016 77.627 25.0586C77.627 26.0091 77.4023 26.8848 76.9531 27.6855C76.5039 28.4798 75.8887 29.1081 75.1074 29.5703C74.3327 30.0326 73.4733 30.2637 72.5293 30.2637ZM72.5391 29.1895C73.2682 29.1895 73.9323 29.0104 74.5312 28.6523C75.1367 28.2878 75.6152 27.7897 75.9668 27.1582C76.3184 26.5267 76.4941 25.8236 76.4941 25.0488C76.4941 24.2871 76.3184 23.5905 75.9668 22.959C75.6152 22.3275 75.1367 21.8294 74.5312 21.4648C73.9258 21.1003 73.2617 20.918 72.5391 20.918C71.8099 20.918 71.1426 21.1003 70.5371 21.4648C69.9316 21.8294 69.4499 22.3275 69.0918 22.959C68.7402 23.5905 68.5645 24.2871 68.5645 25.0488C68.5645 25.8236 68.7402 26.5267 69.0918 27.1582C69.4499 27.7897 69.9316 28.2878 70.5371 28.6523C71.1426 29.0104 71.8099 29.1895 72.5391 29.1895ZM78.3301 20.1074H79.5508L82.2266 27.9883L82.4316 28.584H82.4414L82.6367 27.998L85.2051 20.1074H86.1133L88.6133 27.8223L88.8574 28.584H88.877L89.1602 27.8027L91.7773 20.1074H92.9688L89.502 30H88.4082L85.6445 21.748L82.8711 30H81.7969L78.3301 20.1074ZM103.428 24.7852C103.428 24.9349 103.421 25.0879 103.408 25.2441H94.8047C94.8438 26.0254 95.0423 26.7155 95.4004 27.3145C95.765 27.9134 96.2305 28.3789 96.7969 28.7109C97.3633 29.0365 97.9622 29.1992 98.5938 29.1992C99.3294 29.1992 99.9837 29.0234 100.557 28.6719C101.136 28.3138 101.556 27.8027 101.816 27.1387H103.076C102.874 27.7441 102.552 28.2845 102.109 28.7598C101.673 29.2285 101.152 29.5964 100.547 29.8633C99.9414 30.1237 99.2969 30.2539 98.6133 30.2539C97.7083 30.2539 96.8783 30.0228 96.123 29.5605C95.3678 29.0983 94.7689 28.4701 94.3262 27.6758C93.89 26.8815 93.6719 26.0091 93.6719 25.0586C93.6719 24.1081 93.89 23.2357 94.3262 22.4414C94.7689 21.6406 95.3678 21.0091 96.123 20.5469C96.8783 20.0781 97.7083 19.8438 98.6133 19.8438C99.5052 19.8438 100.319 20.0716 101.055 20.5273C101.79 20.9766 102.37 21.582 102.793 22.3438C103.216 23.099 103.428 23.9128 103.428 24.7852ZM102.285 24.2383C102.253 23.6523 102.064 23.1055 101.719 22.5977C101.38 22.0833 100.934 21.6764 100.381 21.377C99.8275 21.071 99.2318 20.918 98.5938 20.918C97.9948 20.918 97.4284 21.0547 96.8945 21.3281C96.3607 21.6016 95.9115 21.9889 95.5469 22.4902C95.1888 22.9915 94.9577 23.5742 94.8535 24.2383H102.285ZM106.992 20.1074V22.6758C107.246 21.8685 107.663 21.2402 108.242 20.791C108.828 20.3353 109.508 20.1074 110.283 20.1074H111.162V21.123H110.332C109.714 21.123 109.154 21.2923 108.652 21.6309C108.151 21.9629 107.754 22.4447 107.461 23.0762C107.174 23.7077 107.031 24.4466 107.031 25.293V30H105.898V20.1074H106.992ZM121.611 24.7852C121.611 24.9349 121.605 25.0879 121.592 25.2441H112.988C113.027 26.0254 113.226 26.7155 113.584 27.3145C113.949 27.9134 114.414 28.3789 114.98 28.7109C115.547 29.0365 116.146 29.1992 116.777 29.1992C117.513 29.1992 118.167 29.0234 118.74 28.6719C119.32 28.3138 119.74 27.8027 120 27.1387H121.26C121.058 27.7441 120.736 28.2845 120.293 28.7598C119.857 29.2285 119.336 29.5964 118.73 29.8633C118.125 30.1237 117.48 30.2539 116.797 30.2539C115.892 30.2539 115.062 30.0228 114.307 29.5605C113.551 29.0983 112.952 28.4701 112.51 27.6758C112.074 26.8815 111.855 26.0091 111.855 25.0586C111.855 24.1081 112.074 23.2357 112.51 22.4414C112.952 21.6406 113.551 21.0091 114.307 20.5469C115.062 20.0781 115.892 19.8438 116.797 19.8438C117.689 19.8438 118.503 20.0716 119.238 20.5273C119.974 20.9766 120.553 21.582 120.977 22.3438C121.4 23.099 121.611 23.9128 121.611 24.7852ZM120.469 24.2383C120.436 23.6523 120.247 23.1055 119.902 22.5977C119.564 22.0833 119.118 21.6764 118.564 21.377C118.011 21.071 117.415 20.918 116.777 20.918C116.178 20.918 115.612 21.0547 115.078 21.3281C114.544 21.6016 114.095 21.9889 113.73 22.4902C113.372 22.9915 113.141 23.5742 113.037 24.2383H120.469ZM128.066 30.2637C127.155 30.2637 126.322 30.0326 125.566 29.5703C124.818 29.1081 124.225 28.4798 123.789 27.6855C123.359 26.8913 123.145 26.0156 123.145 25.0586C123.145 24.1016 123.359 23.2259 123.789 22.4316C124.225 21.6309 124.818 20.9993 125.566 20.5371C126.322 20.0749 127.158 19.8438 128.076 19.8438C128.727 19.8438 129.329 19.9707 129.883 20.2246C130.443 20.4785 130.918 20.8138 131.309 21.2305C131.706 21.6406 132.008 22.0898 132.217 22.5781L132.197 21.6797V16.2598H133.32V30H132.236V27.5293C132.008 28.0632 131.689 28.5352 131.279 28.9453C130.869 29.3555 130.387 29.6777 129.834 29.9121C129.287 30.1465 128.698 30.2637 128.066 30.2637ZM128.232 29.1992C128.955 29.1992 129.619 29.0169 130.225 28.6523C130.837 28.2878 131.318 27.7897 131.67 27.1582C132.028 26.5202 132.207 25.8171 132.207 25.0488C132.207 24.2936 132.028 23.6003 131.67 22.9688C131.318 22.3307 130.837 21.8294 130.225 21.4648C129.619 21.0938 128.955 20.9082 128.232 20.9082C127.503 20.9082 126.836 21.0905 126.23 21.4551C125.625 21.8197 125.143 22.3177 124.785 22.9492C124.434 23.5807 124.258 24.2806 124.258 25.0488C124.258 25.8171 124.434 26.5202 124.785 27.1582C125.137 27.7897 125.615 28.2878 126.221 28.6523C126.833 29.0169 127.503 29.1992 128.232 29.1992ZM147.168 30.2637C146.576 30.2637 146.006 30.153 145.459 29.9316C144.912 29.7103 144.424 29.3945 143.994 28.9844C143.571 28.5742 143.239 28.0892 142.998 27.5293V30H141.914V16.2598H143.037V21.1816L143.018 22.5781C143.239 22.0703 143.551 21.6113 143.955 21.2012C144.359 20.7845 144.834 20.4557 145.381 20.2148C145.934 19.9674 146.527 19.8438 147.158 19.8438C148.07 19.8438 148.903 20.0781 149.658 20.5469C150.413 21.0091 151.009 21.6406 151.445 22.4414C151.882 23.2357 152.1 24.1081 152.1 25.0586C152.1 26.0156 151.882 26.8913 151.445 27.6855C151.009 28.4798 150.413 29.1081 149.658 29.5703C148.903 30.0326 148.073 30.2637 147.168 30.2637ZM147.002 29.1992C147.725 29.1992 148.389 29.0202 148.994 28.6621C149.6 28.304 150.081 27.8092 150.439 27.1777C150.798 26.5462 150.977 25.8366 150.977 25.0488C150.977 24.2741 150.798 23.571 150.439 22.9395C150.088 22.3079 149.606 21.8132 148.994 21.4551C148.389 21.0905 147.725 20.9082 147.002 20.9082C146.279 20.9082 145.615 21.0938 145.01 21.4648C144.404 21.8294 143.923 22.3275 143.564 22.959C143.213 23.5905 143.037 24.2871 143.037 25.0488C143.037 25.8236 143.213 26.5267 143.564 27.1582C143.923 27.7897 144.404 28.2878 145.01 28.6523C145.622 29.0169 146.286 29.1992 147.002 29.1992ZM154.99 32.4023C155.413 32.4023 155.755 32.321 156.016 32.1582C156.283 31.9954 156.507 31.7546 156.689 31.4355C156.872 31.123 157.077 30.6738 157.305 30.0879L157.393 29.8438L153.369 20.1074H154.561L157.773 27.9395L157.988 28.6816L158.232 27.9492L161.416 20.1074H162.627L158.672 29.6875C158.262 30.6901 157.913 31.4355 157.627 31.9238C157.347 32.4121 157.002 32.7767 156.592 33.0176C156.182 33.2585 155.635 33.3789 154.951 33.3789H153.35V32.4023H154.99ZM179.229 30L177.793 26.6406H170.596L169.16 30H167.939L173.623 16.7188H174.766L180.459 30H179.229ZM171.025 25.6348H177.363L174.238 18.3203L174.199 18.1738H174.189L174.15 18.3203L171.025 25.6348ZM182.617 16.7188H183.77V30H182.617V16.7188Z" fill="#C0BDAF"/>
<path d="M0 11C0 7.68629 2.68629 5 6 5H34C37.3137 5 40 7.68629 40 11V39C40 42.3137 37.3137 45 34 45H6C2.68629 45 0 42.3137 0 39V11Z" fill="#2C2E86"/>
<path d="M15.5588 15.3638V20.6412C15.3568 20.4918 15.1519 20.3454 14.9324 20.2165C13.8756 19.5928 12.6871 19.2823 11.364 19.2823C10.0409 19.2823 8.86705 19.5928 7.81615 20.2165C6.76233 20.8403 5.93977 21.6838 5.34261 22.7498C4.74544 23.8158 4.44686 24.9843 4.44686 26.2553C4.44686 27.5264 4.74544 28.7066 5.34261 29.7667C5.93977 30.8298 6.76526 31.6703 7.81615 32.2941C8.86997 32.9179 10.0467 33.2284 11.3523 33.2284C12.6579 33.2284 13.8639 32.9179 14.9265 32.3C15.149 32.1711 15.3568 32.0247 15.5617 31.8753V32.7627H18.6559V15.3638H15.5588ZM14.7333 28.3669C14.3967 28.9907 13.9371 29.4768 13.3516 29.8253C12.7662 30.1738 12.1105 30.3495 11.3757 30.3495C10.641 30.3495 9.98527 30.1738 9.39981 29.8253C8.81436 29.4768 8.35477 28.9907 8.01814 28.3669C7.6815 27.7431 7.51171 27.0402 7.51171 26.2553C7.51171 25.4705 7.67857 24.7764 8.01814 24.1526C8.35477 23.5259 8.81728 23.0368 9.40566 22.6824C9.99405 22.3281 10.6498 22.1524 11.3757 22.1524C12.1017 22.1524 12.7574 22.331 13.3458 22.6824C13.9342 23.0368 14.3967 23.5259 14.7333 24.1526C15.0699 24.7793 15.2397 25.4822 15.2397 26.2553C15.2397 27.0285 15.0699 27.7431 14.7333 28.3669Z" fill="white"/>
<path d="M34.6544 22.7498C34.0572 21.6838 33.2317 20.8403 32.1808 20.2165C31.127 19.5928 29.9444 19.2823 28.6329 19.2823C27.3215 19.2823 26.1213 19.5928 25.0646 20.2165C24.8421 20.3454 24.6372 20.4918 24.4381 20.6412V15.3638H21.344V32.7627H24.4381V31.8753C24.6401 32.0247 24.848 32.1711 25.0734 32.3C26.136 32.9179 27.3274 33.2284 28.6476 33.2284C29.9678 33.2284 31.1299 32.9179 32.1837 32.2941C33.2375 31.6733 34.0601 30.8298 34.6573 29.7667C35.2544 28.7037 35.553 27.5351 35.553 26.2553C35.553 24.9755 35.2544 23.8158 34.6573 22.7498H34.6544ZM31.9759 28.3669C31.6392 28.9907 31.1797 29.4768 30.5942 29.8253C30.0117 30.1738 29.353 30.3495 28.6183 30.3495C27.8836 30.3495 27.2278 30.1738 26.6424 29.8253C26.0599 29.4768 25.5974 28.9907 25.2607 28.3669C24.9241 27.7431 24.7543 27.0402 24.7543 26.2553C24.7543 25.4705 24.9241 24.7764 25.2607 24.1526C25.5974 23.5259 26.0599 23.0368 26.6482 22.6824C27.2366 22.3281 27.8923 22.1524 28.6183 22.1524C29.3443 22.1524 30 22.331 30.5884 22.6824C31.1767 23.0368 31.6392 23.5259 31.9759 24.1526C32.3125 24.7793 32.4823 25.4822 32.4823 26.2553C32.4823 27.0285 32.3154 27.7431 31.9759 28.3669Z" fill="white"/>
</svg>
