<svg width="73" height="73" viewBox="0 0 73 73" fill="none" xmlns="http://www.w3.org/2000/svg">
<rect width="73" height="73" rx="6" fill="#2C2E86"/>
<path d="M28.3945 18.9185V28.5496C28.0259 28.2771 27.652 28.0098 27.2513 27.7746C25.3227 26.6362 23.1537 26.0697 20.739 26.0697C18.3243 26.0697 16.1821 26.6362 14.2642 27.7746C12.341 28.9131 10.8398 30.4523 9.74997 32.3978C8.66015 34.3433 8.11523 36.4758 8.11523 38.7954C8.11523 41.1151 8.66015 43.269 9.74997 45.2038C10.8398 47.1439 12.3463 48.6778 14.2642 49.8162C16.1874 50.9547 18.335 51.5212 20.7177 51.5212C23.1003 51.5212 25.3013 50.9547 27.2406 49.8269C27.6466 49.5918 28.0259 49.3245 28.3999 49.052V50.6714H34.0467V18.9185H28.3999H28.3945ZM26.888 42.649C26.2736 43.7874 25.4349 44.6746 24.3665 45.3107C23.298 45.9467 22.1013 46.2674 20.7604 46.2674C19.4195 46.2674 18.2228 45.9467 17.1544 45.3107C16.0859 44.6746 15.2472 43.7874 14.6328 42.649C14.0185 41.5106 13.7086 40.2278 13.7086 38.7954C13.7086 37.3631 14.0131 36.0964 14.6328 34.9579C15.2472 33.8142 16.0913 32.9216 17.1651 32.2749C18.2388 31.6282 19.4355 31.3075 20.7604 31.3075C22.0853 31.3075 23.282 31.6335 24.3558 32.2749C25.4296 32.9216 26.2736 33.8142 26.888 34.9579C27.5024 36.1017 27.8122 37.3844 27.8122 38.7954C27.8122 40.2065 27.5024 41.5106 26.888 42.649Z" fill="white"/>
<path d="M63.2425 32.3978C62.1527 30.4523 60.6462 28.9131 58.7283 27.7746C56.8051 26.6362 54.6468 26.0697 52.2535 26.0697C49.8601 26.0697 47.6698 26.6362 45.7412 27.7746C45.3352 28.0098 44.9612 28.2771 44.598 28.5496V18.9185H38.9512V50.6714H44.598V49.052C44.9666 49.3245 45.3459 49.5918 45.7572 49.8269C47.6965 50.9547 49.8708 51.5212 52.2802 51.5212C54.6895 51.5212 56.8104 50.9547 58.7336 49.8162C60.6569 48.6832 62.158 47.1439 63.2479 45.2038C64.3377 43.2636 64.8826 41.1311 64.8826 38.7954C64.8826 36.4598 64.3377 34.3433 63.2479 32.3978H63.2425ZM58.3543 42.649C57.74 43.7874 56.9012 44.6746 55.8328 45.3107C54.7697 45.9467 53.5677 46.2674 52.2267 46.2674C50.8858 46.2674 49.6892 45.9467 48.6207 45.3107C47.5576 44.6746 46.7135 43.7874 46.0991 42.649C45.4848 41.5106 45.1749 40.2278 45.1749 38.7954C45.1749 37.3631 45.4848 36.0964 46.0991 34.9579C46.7135 33.8142 47.5576 32.9216 48.6314 32.2749C49.7052 31.6282 50.9019 31.3075 52.2267 31.3075C53.5516 31.3075 54.7483 31.6335 55.8221 32.2749C56.8959 32.9216 57.74 33.8142 58.3543 34.9579C58.9687 36.1017 59.2786 37.3844 59.2786 38.7954C59.2786 40.2065 58.974 41.5106 58.3543 42.649Z" fill="white"/>
</svg>
