<svg width="360" height="498" viewBox="0 0 360 498" fill="none" xmlns="http://www.w3.org/2000/svg">
<rect width="360.923" height="498" fill="black"/>
<path d="M767.85 275.761C733.4 209.204 685.779 156.543 625.155 117.596C564.362 78.6486 496.139 59.2664 420.485 59.2664C344.832 59.2664 275.595 78.6486 214.633 117.596C201.799 125.641 189.978 134.784 178.495 144.109V0.5H0V900.927H178.495V845.523C190.147 854.849 202.137 863.991 215.14 872.036C276.439 910.618 345.169 930 421.329 930C497.489 930 564.531 910.618 625.324 871.671C686.117 832.906 733.569 780.246 768.018 713.871C802.468 647.496 819.692 574.539 819.692 494.633C819.692 414.728 802.468 342.319 768.018 275.761H767.85ZM613.334 626.468C593.914 665.416 567.401 695.769 533.627 717.528C500.022 739.287 462.027 750.258 419.641 750.258C377.255 750.258 339.428 739.287 305.654 717.528C272.049 695.769 245.367 665.416 225.947 626.468C206.527 587.521 196.733 543.637 196.733 494.633C196.733 445.629 206.527 402.294 225.947 363.347C245.367 324.217 272.049 293.681 305.992 271.556C339.934 249.431 377.761 238.46 419.641 238.46C461.52 238.46 499.347 249.614 533.29 271.556C567.233 293.681 593.914 324.217 613.334 363.347C632.754 402.477 642.548 446.361 642.548 494.633C642.548 542.906 632.923 587.521 613.334 626.468Z" fill="#2C0D9D"/>
</svg>
