<svg width="1918" height="772" viewBox="0 0 1918 772" fill="none" xmlns="http://www.w3.org/2000/svg">
<path d="M2192 684.175C2093.66 508.5 1957.71 369.505 1784.65 266.706C1611.1 163.908 1416.34 112.75 1200.37 112.75C984.401 112.75 786.75 163.908 612.72 266.706C576.082 287.942 542.337 312.073 509.555 336.687V0H0V2334.26H509.555V2188.03C542.819 2212.64 577.046 2236.77 614.166 2258.01C789.16 2359.84 985.365 2411 1202.78 2411C1420.2 2411 1611.58 2359.84 1785.13 2257.04C1958.68 2154.73 2094.14 2015.73 2192.48 1840.54C2290.83 1665.35 2340 1472.78 2340 1261.87C2340 1050.97 2290.83 859.85 2192.48 684.175H2192ZM1750.9 1609.85C1695.46 1712.64 1619.78 1792.76 1523.36 1850.19C1427.43 1907.62 1318.96 1936.58 1197.96 1936.58C1076.96 1936.58 968.974 1907.62 872.559 1850.19C776.626 1792.76 700.458 1712.64 645.019 1609.85C589.58 1507.05 561.62 1391.22 561.62 1261.87C561.62 1132.53 589.58 1018.15 645.019 915.351C700.458 812.07 776.626 731.472 873.523 673.075C970.421 614.677 1078.41 585.72 1197.96 585.72C1317.52 585.72 1425.5 615.16 1522.4 673.075C1619.3 731.472 1695.46 812.07 1750.9 915.351C1806.34 1018.63 1834.3 1134.46 1834.3 1261.87C1834.3 1389.29 1806.82 1507.05 1750.9 1609.85Z" fill="#2C0D9D"/>
</svg>
