<svg width="30" height="30" viewBox="0 0 30 30" fill="none" xmlns="http://www.w3.org/2000/svg">
<path fill-rule="evenodd" clip-rule="evenodd" d="M9.375 3.75H20.63C23.7337 3.75 26.25 6.26625 26.25 9.37V20.6313C26.25 23.7338 23.7337 26.25 20.63 26.25H9.37C6.26625 26.25 3.75 23.7337 3.75 20.63V9.375C3.75 6.26875 6.26875 3.75 9.375 3.75V3.75Z" stroke="white" stroke-width="1.5" stroke-linecap="round" stroke-linejoin="round"/>
<path d="M10.1499 13.875V20.625" stroke="white" stroke-width="1.5" stroke-linecap="round" stroke-linejoin="round"/>
<path d="M14.6489 20.625V16.6875C14.6489 15.1337 15.9077 13.875 17.4614 13.875V13.875C19.0152 13.875 20.2739 15.1337 20.2739 16.6875V20.625" stroke="white" stroke-width="1.5" stroke-linecap="round" stroke-linejoin="round"/>
<path d="M10.1477 9.79736C9.99268 9.79736 9.86643 9.92361 9.86768 10.0786C9.86768 10.2336 9.99393 10.3599 10.1489 10.3599C10.3039 10.3599 10.4302 10.2336 10.4302 10.0786C10.4302 9.92236 10.3039 9.79736 10.1477 9.79736" stroke="white" stroke-width="1.5" stroke-linecap="round" stroke-linejoin="round"/>
</svg>
