<svg width="197" height="37" viewBox="0 0 197 37" fill="none" xmlns="http://www.w3.org/2000/svg">
<path d="M10.1067 14.811C11.2667 14.1444 12.504 13.8112 13.8246 13.8112C15.4009 13.8112 16.7929 14.1861 17.9945 14.93C19.1961 15.6739 20.0944 16.769 20.6833 18.2032H27.1018C26.6022 16.2274 25.7337 14.4658 24.5023 12.9125C23.2709 11.3592 21.7362 10.1511 19.904 9.27032C18.0659 8.39548 16.0315 7.95508 13.7948 7.95508C11.1953 7.95508 8.84557 8.59187 6.73977 9.86545C4.63396 11.139 2.9862 12.859 1.79053 15.0252C0.59486 17.1915 0 19.5601 0 22.1252C0 24.6902 0.59486 27.0826 1.79053 29.2489C2.9862 31.4152 4.63396 33.1291 6.73977 34.3968C8.84557 35.6644 11.1953 36.2952 13.7948 36.2952C16.0315 36.2952 18.0719 35.8489 19.9278 34.9562C21.7838 34.0635 23.3185 32.8137 24.538 31.2128C25.7574 29.6119 26.6021 27.7789 27.0721 25.7138H20.6773C20.1241 27.3087 19.2378 28.499 18.0243 29.2905C16.8108 30.0821 15.4069 30.4748 13.8127 30.4748C12.498 30.4748 11.2548 30.1356 10.0948 29.4631C8.9348 28.7847 8.00087 27.8206 7.28704 26.5648C6.57915 25.3091 6.22224 23.8332 6.22224 22.1311C6.22224 20.429 6.57915 18.9769 7.28704 17.7093C7.99492 16.4476 8.9348 15.4775 10.0948 14.811H10.1067Z" fill="#C0BDAF"/>
<path d="M51.9905 9.86307C49.8431 8.59544 47.4279 7.9646 44.7392 7.9646C42.0504 7.9646 39.665 8.59544 37.5295 9.86307C35.388 11.1307 33.7164 12.8447 32.5029 15.011C31.2894 17.1772 30.6826 19.5518 30.6826 22.1347C30.6826 24.7175 31.2894 27.1159 32.5029 29.2703C33.7164 31.4306 35.3939 33.1387 37.5295 34.4063C39.671 35.6739 42.0623 36.3047 44.7154 36.3047C47.3684 36.3047 49.8193 35.6739 51.9786 34.4182C54.138 33.1625 55.8214 31.4485 57.0349 29.2822C58.2484 27.1159 58.8552 24.7354 58.8552 22.1347C58.8552 19.5339 58.2484 17.1772 57.0349 15.011C55.8214 12.8447 54.1439 11.1307 51.9965 9.86307H51.9905ZM51.586 26.4256C50.9019 27.6932 49.968 28.6811 48.7783 29.3893C47.5885 30.0975 46.2561 30.4546 44.763 30.4546C43.2699 30.4546 41.9374 30.0975 40.7477 29.3893C39.5579 28.6811 38.624 27.6932 37.9399 26.4256C37.2558 25.1579 36.9108 23.7296 36.9108 22.1347C36.9108 20.5397 37.2499 19.1293 37.9399 17.8616C38.624 16.5881 39.5639 15.5942 40.7595 14.8741C41.9552 14.154 43.2877 13.7969 44.763 13.7969C46.2382 13.7969 47.5707 14.1599 48.7664 14.8741C49.962 15.5942 50.9019 16.5881 51.586 17.8616C52.2701 19.1352 52.6151 20.5635 52.6151 22.1347C52.6151 23.7058 52.2701 25.1579 51.586 26.4256Z" fill="#C0BDAF"/>
<path d="M81.2685 22.8571C81.2685 25.3209 80.7391 27.2016 79.6802 28.4989C78.6214 29.7963 77.0569 30.451 74.9749 30.451C72.8929 30.451 71.3224 29.8023 70.2576 28.5168C69.1928 27.2254 68.6575 25.3388 68.6575 22.8631V8.90723H62.4233V23.0416C62.4233 26.1065 62.9587 28.6299 64.0354 30.6057C65.1121 32.5815 66.5874 34.0218 68.4671 34.9323C70.3469 35.8429 72.5241 36.2952 75.0046 36.2952C77.4852 36.2952 79.6326 35.8369 81.5005 34.9145C83.3684 33.998 84.8436 32.5518 85.9203 30.5879C86.997 28.618 87.5324 26.1065 87.5324 23.0356V8.90723H81.2685V22.8571Z" fill="#C0BDAF"/>
<path d="M99.2999 0H93.0122V35.3567H99.2999V0Z" fill="#C0BDAF"/>
<path d="M125.467 0V10.7243C125.057 10.4207 124.64 10.1232 124.194 9.86132C122.047 8.59369 119.632 7.96286 116.943 7.96286C114.254 7.96286 111.869 8.59369 109.733 9.86132C107.592 11.129 105.92 12.8429 104.707 15.0092C103.493 17.1755 102.886 19.5501 102.886 22.1329C102.886 24.7158 103.493 27.1142 104.707 29.2686C105.92 31.4289 107.598 33.1369 109.733 34.4045C111.875 35.6722 114.266 36.303 116.919 36.303C119.572 36.303 122.023 35.6722 124.182 34.4164C124.634 34.1546 125.057 33.857 125.473 33.5535V35.3567H131.761V0H125.473H125.467ZM123.79 26.4238C123.106 27.6915 122.172 28.6794 120.982 29.3876C119.792 30.0958 118.46 30.4529 116.967 30.4529C115.473 30.4529 114.141 30.0958 112.951 29.3876C111.762 28.6794 110.828 27.6915 110.144 26.4238C109.459 25.1562 109.114 23.7279 109.114 22.1329C109.114 20.538 109.453 19.1275 110.144 17.8599C110.828 16.5863 111.767 15.5924 112.963 14.8723C114.159 14.1522 115.491 13.7951 116.967 13.7951C118.442 13.7951 119.774 14.1582 120.97 14.8723C122.166 15.5924 123.106 16.5863 123.79 17.8599C124.474 19.1335 124.819 20.5618 124.819 22.1329C124.819 23.7041 124.474 25.1562 123.79 26.4238Z" fill="#C0BDAF"/>
<path d="M164.282 15.0092C163.069 12.8429 161.391 11.129 159.256 9.86132C157.114 8.59369 154.711 7.96286 152.046 7.96286C149.381 7.96286 146.942 8.59369 144.795 9.86132C144.342 10.1232 143.926 10.4207 143.522 10.7243V0H137.234V35.3567H143.522V33.5535C143.932 33.857 144.354 34.1546 144.812 34.4164C146.972 35.6722 149.393 36.303 152.076 36.303C154.758 36.303 157.12 35.6722 159.262 34.4045C161.403 33.1429 163.075 31.4289 164.288 29.2686C165.502 27.1082 166.108 24.7337 166.108 22.1329C166.108 19.5322 165.502 17.1755 164.288 15.0092H164.282ZM158.839 26.4238C158.155 27.6915 157.221 28.6794 156.031 29.3876C154.848 30.0958 153.509 30.4529 152.016 30.4529C150.523 30.4529 149.191 30.0958 148.001 29.3876C146.817 28.6794 145.877 27.6915 145.193 26.4238C144.509 25.1562 144.164 23.7279 144.164 22.1329C144.164 20.538 144.509 19.1275 145.193 17.8599C145.877 16.5863 146.817 15.5924 148.013 14.8723C149.208 14.1522 150.541 13.7951 152.016 13.7951C153.491 13.7951 154.824 14.1582 156.02 14.8723C157.215 15.5924 158.155 16.5863 158.839 17.8599C159.523 19.1335 159.868 20.5618 159.868 22.1329C159.868 23.7041 159.529 25.1562 158.839 26.4238Z" fill="#2C2E86"/>
<path d="M196.994 21.661C196.994 19.1971 196.423 16.9237 195.293 14.8348C194.157 12.7459 192.568 11.0795 190.522 9.82974C188.476 8.57997 186.15 7.95508 183.532 7.95508C180.915 7.95508 178.553 8.58592 176.436 9.85355C174.324 11.1212 172.67 12.8352 171.475 15.0014C170.279 17.1677 169.684 19.5423 169.684 22.1252C169.684 24.708 170.285 27.0826 171.475 29.2489C172.67 31.4152 174.324 33.1291 176.436 34.3968C178.548 35.6644 180.915 36.2952 183.532 36.2952C185.662 36.2952 187.613 35.8727 189.392 35.0335C191.17 34.1944 192.646 33.0696 193.824 31.6651C195.001 30.2606 195.822 28.7371 196.292 27.0885H189.433C188.964 28.2491 188.232 29.1358 187.238 29.7547C186.239 30.3677 184.966 30.6772 183.408 30.6772C182.176 30.6772 181.04 30.4034 179.987 29.8559C178.94 29.3084 178.066 28.5169 177.364 27.4754C176.662 26.4339 176.21 25.2079 176.001 23.7856H196.869C196.958 22.9524 197 22.2442 197 21.655L196.994 21.661ZM176.257 18.9293C176.757 17.126 177.673 15.7632 179 14.8348C180.326 13.9064 181.825 13.4422 183.509 13.4422C184.722 13.4422 185.852 13.6921 186.899 14.1802C187.946 14.6741 188.803 15.3407 189.457 16.1798C190.118 17.0189 190.486 17.9354 190.576 18.9233H176.257V18.9293Z" fill="#2C2E86"/>
</svg>
