<svg width="30" height="30" viewBox="0 0 30 30" fill="none" xmlns="http://www.w3.org/2000/svg">
<path fill-rule="evenodd" clip-rule="evenodd" d="M26.9788 7.96646C26.6925 6.71146 25.845 5.72146 24.7675 5.38146C22.8188 4.77271 15 4.77271 15 4.77271C15 4.77271 7.185 4.77271 5.2325 5.38146C4.15875 5.71646 3.31125 6.70646 3.02125 7.96646C2.5 10.244 2.5 15.0002 2.5 15.0002C2.5 15.0002 2.5 19.7565 3.02125 22.034C3.3075 23.289 4.155 24.279 5.2325 24.619C7.185 25.2277 15 25.2277 15 25.2277C15 25.2277 22.8188 25.2277 24.7675 24.619C25.8413 24.284 26.6888 23.294 26.9788 22.034C27.5 19.7565 27.5 15.0002 27.5 15.0002C27.5 15.0002 27.5 10.244 26.9788 7.96646Z" stroke="white" stroke-width="1.5" stroke-linecap="round" stroke-linejoin="round"/>
<path fill-rule="evenodd" clip-rule="evenodd" d="M12.5024 18.75L18.9974 15L12.5024 11.25V18.75Z" stroke="white" stroke-width="1.5" stroke-linecap="round" stroke-linejoin="round"/>
</svg>
