<svg width="30" height="30" viewBox="0 0 30 30" fill="none" xmlns="http://www.w3.org/2000/svg">
<path fill-rule="evenodd" clip-rule="evenodd" d="M26.9788 7.96621C26.6925 6.71121 25.845 5.72121 24.7675 5.38121C22.8188 4.77246 15 4.77246 15 4.77246C15 4.77246 7.185 4.77246 5.2325 5.38121C4.15875 5.71621 3.31125 6.70621 3.02125 7.96621C2.5 10.2437 2.5 15 2.5 15C2.5 15 2.5 19.7562 3.02125 22.0337C3.3075 23.2887 4.155 24.2787 5.2325 24.6187C7.185 25.2275 15 25.2275 15 25.2275C15 25.2275 22.8188 25.2275 24.7675 24.6187C25.8413 24.2837 26.6888 23.2937 26.9788 22.0337C27.5 19.7562 27.5 15 27.5 15C27.5 15 27.5 10.2437 26.9788 7.96621Z" stroke="#787878" stroke-width="1.5" stroke-linecap="round" stroke-linejoin="round"/>
<path fill-rule="evenodd" clip-rule="evenodd" d="M12.502 18.75L18.997 15L12.502 11.25V18.75Z" stroke="#787878" stroke-width="1.5" stroke-linecap="round" stroke-linejoin="round"/>
</svg>
